<?xml version="1.0" encoding="utf-8"?>
<!-- Generator: Adobe Illustrator 17.1.0, SVG Export Plug-In . SVG Version: 6.00 Build 0)  -->
<!DOCTYPE svg PUBLIC "-//W3C//DTD SVG 1.1//EN" "http://www.w3.org/Graphics/SVG/1.1/DTD/svg11.dtd">
<svg version="1.1" id="Layer_1" xmlns="http://www.w3.org/2000/svg" xmlns:xlink="http://www.w3.org/1999/xlink" width="50px" height="50px" x="0px" y="0px"
	 viewBox="0 0 300 300" enable-background="new 0 0 300 300" xml:space="preserve">
<g>
	<path fill="#050505" d="M14.449,257.136c-7.311,7.307-7.311,19.161,0,26.469c3.656,3.656,8.445,5.483,13.234,5.483
		s9.578-1.828,13.234-5.483l57.627-57.622l-26.469-26.47L14.449,257.136z"/>
	<path fill="#050505" d="M280.72,45.905l-28.544-28.557c-2.869-2.866-6.754-4.475-10.803-4.475
		c-4.049-0.003-7.934,1.609-10.804,4.47l-23.845,23.845l-13.235,13.235l-5.712-5.713c-1.654-1.654-3.893-2.585-6.233-2.585
		c-2.34,0-4.579,0.932-6.234,2.585L67.753,156.255c-1.654,1.654-2.577,3.898-2.577,6.238c0,2.34,0.923,4.583,2.577,6.238
		l61.603,61.588c1.718,1.718,3.976,2.582,6.232,2.582c2.258,0,4.506-0.864,6.234-2.586l107.548-107.54
		c3.446-3.445,3.446-9.029,0-12.476l-5.722-5.726l13.235-13.235l23.836-23.836C286.68,61.539,286.68,51.868,280.72,45.905z
		 M267.549,59.871L260,67.425c-0.822,0.827-1.938,1.289-3.107,1.289c-1.17,0-2.285-0.462-3.107-1.285l-23.151-23.151
		c-0.823-0.823-1.288-1.942-1.288-3.107c0-1.165,0.465-2.286,1.288-3.108l7.559-7.554c1.718-1.718,4.497-1.718,6.216,0
		l23.141,23.147C269.268,55.375,269.268,58.152,267.549,59.871z"/>
</g>
</svg>
