<?xml version="1.0" encoding="utf-8"?>
<!-- Generator: Adobe Illustrator 17.1.0, SVG Export Plug-In . SVG Version: 6.00 Build 0)  -->
<!DOCTYPE svg PUBLIC "-//W3C//DTD SVG 1.1//EN" "http://www.w3.org/Graphics/SVG/1.1/DTD/svg11.dtd">
<svg version="1.1" id="Layer_1" xmlns="http://www.w3.org/2000/svg" xmlns:xlink="http://www.w3.org/1999/xlink" width="50px" height="50px" x="0px" y="0px"
	 viewBox="0 0 300 300" enable-background="new 0 0 300 300" xml:space="preserve">
<g>
	<path fill="#050505" d="M181.066,60.539H23.488c-7.62,0-13.822,6.202-13.822,13.822v95.499c0,7.62,6.203,13.822,13.822,13.822
		h55.844v19.868H54.995c-3.743,0-6.776,3.033-6.776,6.776v9.781c0,3.744,3.033,6.776,6.776,6.776h94.564
		c3.743,0,6.775-3.032,6.775-6.776v-9.781c0-3.743-3.032-6.776-6.775-6.776h-24.333v-19.868h55.84
		c7.619,0,13.822-6.203,13.822-13.822V74.361C194.889,66.741,188.686,60.539,181.066,60.539z M180.795,169.59l-157.037,0.27
		l-0.271-95.229l157.308-0.271V169.59z"/>
	<path fill="#050505" d="M281.033,53.52h-67.978c-3.533,0-6.4,2.867-6.4,6.399v161.446c0,3.532,2.867,6.4,6.4,6.4h67.978
		c3.533,0,6.4-2.868,6.4-6.4V59.919C287.434,56.387,284.566,53.52,281.033,53.52z M224.812,64.319h44.467
		c2.597,0,4.698,2.101,4.698,4.697c0,2.597-2.1,4.698-4.698,4.698h-44.467c-2.596,0-4.697-2.101-4.697-4.698
		C220.115,66.42,222.217,64.319,224.812,64.319z M247.039,215.961c-3.968,0-7.179-3.211-7.179-7.179
		c0-3.973,3.211-7.184,7.179-7.184c3.974,0,7.185,3.211,7.185,7.184C254.224,212.749,251.013,215.961,247.039,215.961z
		 M247.039,186.018c-5.473,0-9.904-4.437-9.904-9.91c0-5.477,4.432-9.914,9.904-9.914c5.478,0,9.914,4.437,9.914,9.914
		C256.953,181.581,252.517,186.018,247.039,186.018z M276.01,114.319c0,2.619-2.124,4.743-4.743,4.743h-48.441
		c-2.619,0-4.743-2.123-4.743-4.743V99.703c0-2.62,2.124-4.744,4.743-4.744h48.441c2.619,0,4.743,2.124,4.743,4.744V114.319z"/>
</g>
</svg>
