<?xml version="1.0" encoding="utf-8"?>
<!-- Generator: Adobe Illustrator 17.1.0, SVG Export Plug-In . SVG Version: 6.00 Build 0)  -->
<!DOCTYPE svg PUBLIC "-//W3C//DTD SVG 1.1//EN" "http://www.w3.org/Graphics/SVG/1.1/DTD/svg11.dtd">
<svg version="1.1" id="Layer_1" xmlns="http://www.w3.org/2000/svg" xmlns:xlink="http://www.w3.org/1999/xlink" width="50px" height="50px" x="0px" y="0px"
	 viewBox="0 0 300 300" enable-background="new 0 0 300 300" xml:space="preserve">
<g>
	<path fill="#050505" d="M220.355,159.73c0,3.991-1.389,7.866-3.775,11.04v53.824c0,2.647-2.145,4.797-4.793,4.797H88.205
		c-2.648,0-4.793-2.149-4.793-4.797V44.824c0-2.649,2.145-4.798,4.793-4.798h9.1l8.682-12.691V9.881H76.176
		c-10.489,0-18.993,8.503-18.993,18.999v243.981c0,10.494,8.504,18.998,18.993,18.998h147.648c10.49,0,18.993-8.503,18.993-18.998
		V126.009l-22.462,5.59V159.73z M149.995,277.756c-10.358,0-18.731-8.378-18.731-18.728c0-10.344,8.373-18.737,18.731-18.737
		c10.332,0,18.732,8.393,18.732,18.737C168.727,269.377,160.327,277.756,149.995,277.756z"/>
	<path fill="#050505" d="M223.824,9.881h-75.759v23.585v2.644l-1.361,2.266l-0.988,1.65h66.071c2.648,0,4.793,2.149,4.793,4.798
		v45.908l21.659-11.846l4.578-2.504V28.879C242.817,18.384,234.314,9.881,223.824,9.881z"/>
	<path fill="#050505" d="M101.547,57.294l14.387,39.338c0.197,0.532,0.262,1.101,0.188,1.656l-5.586,42.542
		c-0.084,0.899,0.364,1.808,1.213,2.247c0.326,0.168,0.671,0.247,1.016,0.247c0.821,0,1.613-0.448,2.015-1.226l21.37-41.628
		c1.193-2.331,1.297-5.072,0.271-7.488l-13.213-31.212c-0.43-1.025-0.354-2.196,0.224-3.152l15.087-25.152V9.877h-22.984v20.411
		l-12.979,18.975C100.94,51.621,100.559,54.609,101.547,57.294z"/>
	<path fill="#050505" d="M188.439,123.193l2.768,26.532c0.047,0.424-0.102,0.844-0.409,1.142l-22.342,21.856
		c-2.266,2.209-3.17,5.46-2.387,8.522l8.83,34.35c0.205,0.844,0.867,1.543,1.771,1.781c0.205,0.052,0.41,0.076,0.615,0.076
		c1.102,0,2.107-0.742,2.387-1.856l5.566-26.807c0.057-0.27,0.188-0.518,0.393-0.713l22.518-22.023
		c1.697-1.665,2.658-3.944,2.658-6.323v-34.503c0-0.639,0.438-1.198,1.062-1.357l30.946-7.697V87.263l-49.828,27.25
		C189.855,116.224,188.066,119.646,188.439,123.193z"/>
</g>
</svg>
