<?xml version="1.0" encoding="utf-8"?>
<!-- Generator: Adobe Illustrator 17.1.0, SVG Export Plug-In . SVG Version: 6.00 Build 0)  -->
<!DOCTYPE svg PUBLIC "-//W3C//DTD SVG 1.1//EN" "http://www.w3.org/Graphics/SVG/1.1/DTD/svg11.dtd">
<svg width="50px" height="50px" version="1.1" id="Layer_1" xmlns="http://www.w3.org/2000/svg" xmlns:xlink="http://www.w3.org/1999/xlink" x="0px" y="0px"
	 viewBox="0 0 300 300" enable-background="new 0 0 300 300" xml:space="preserve">
<path fill="#050505" d="M222.109,8.471H73.891c-10.522,0-19.064,8.537-19.064,19.069v244.92c0,10.532,8.542,19.069,19.064,19.069
	h148.219c10.522,0,19.064-8.537,19.064-19.069V27.54C241.174,17.008,232.632,8.471,222.109,8.471z M81.17,43.554
	c0-2.659,2.156-4.814,4.811-4.814H210.02c2.664,0,4.82,2.156,4.82,4.814v180.454c0,2.658-2.156,4.813-4.82,4.813H85.98
	c-2.654,0-4.811-2.156-4.811-4.813V43.554z M116.819,262.633c0,2.552-2.072,4.625-4.625,4.625H79.318
	c-2.553,0-4.625-2.073-4.625-4.625v-8.126c0-2.552,2.072-4.626,4.625-4.626h32.876c2.553,0,4.625,2.074,4.625,4.626V262.633z
	 M148.01,271.608c-7.206,0-13.039-5.837-13.039-13.039c0-7.2,5.833-13.038,13.039-13.038c7.196,0,13.037,5.838,13.037,13.038
	C161.047,265.771,155.206,271.608,148.01,271.608z M221.317,262.633c0,2.552-2.073,4.625-4.626,4.625h-32.876
	c-2.552,0-4.625-2.073-4.625-4.625v-8.126c0-2.552,2.073-4.626,4.625-4.626h32.876c2.553,0,4.626,2.074,4.626,4.626V262.633z"/>
</svg>
