<?xml version="1.0" encoding="utf-8"?>
<!-- Generator: Adobe Illustrator 17.1.0, SVG Export Plug-In . SVG Version: 6.00 Build 0)  -->
<!DOCTYPE svg PUBLIC "-//W3C//DTD SVG 1.1//EN" "http://www.w3.org/Graphics/SVG/1.1/DTD/svg11.dtd">
<svg version="1.1" id="Layer_1" xmlns="http://www.w3.org/2000/svg" xmlns:xlink="http://www.w3.org/1999/xlink" width="50px" height="50px" x="0px" y="0px"
	 viewBox="0 0 300 300" enable-background="new 0 0 300 300" xml:space="preserve">
<g>
	<path fill="#050505" d="M158.606,87.723H52.798c-7.516,0-13.612,6.097-13.612,13.612v174.854c0,7.516,6.096,13.612,13.612,13.612
		h105.809c7.517,0,13.612-6.097,13.612-13.612V101.335C172.218,93.819,166.123,87.723,158.606,87.723z M57.996,112.769
		c0-1.9,1.537-3.438,3.436-3.438h88.554c1.9,0,3.436,1.538,3.436,3.438v128.828c0,1.9-1.536,3.437-3.436,3.437H61.432
		c-1.9,0-3.436-1.537-3.436-3.437V112.769z M83.446,269.17c0,1.826-1.481,3.307-3.307,3.307H56.668
		c-1.826,0-3.306-1.482-3.306-3.307v-5.798c0-1.825,1.48-3.307,3.306-3.307h23.471c1.826,0,3.307,1.482,3.307,3.307V269.17z
		 M105.711,275.579c-5.146,0-9.309-4.163-9.309-9.305c0-5.142,4.163-9.31,9.309-9.31c5.137,0,9.31,4.168,9.31,9.31
		C115.021,271.415,110.849,275.579,105.711,275.579z M158.047,269.17c0,1.826-1.481,3.307-3.307,3.307H131.27
		c-1.826,0-3.307-1.482-3.307-3.307v-5.798c0-1.825,1.481-3.307,3.307-3.307h23.471c1.826,0,3.307,1.482,3.307,3.307V269.17z"/>
	<path fill="#050505" d="M162.616,43.192c-5.268,0-9.538,4.27-9.538,9.538c0,5.267,4.27,9.538,9.538,9.538
		c10.609,0,20.585,4.131,28.086,11.633c7.499,7.502,11.629,17.473,11.629,28.081c0,5.268,4.27,9.538,9.538,9.538
		c5.267,0,9.538-4.27,9.538-9.538c0.004-15.699-6.111-30.461-17.217-41.569C193.082,49.307,178.32,43.192,162.616,43.192z"/>
	<path fill="#050505" d="M162.621,3.793c-5.268,0-9.538,4.27-9.538,9.538c0,5.267,4.27,9.538,9.538,9.538
		c43.627,0,79.119,35.492,79.119,79.114c0,5.268,4.27,9.538,9.538,9.538c5.267,0,9.538-4.27,9.538-9.538
		C260.814,47.84,216.763,3.793,162.621,3.793z"/>
</g>
</svg>
